<?xml version="1.0" encoding="utf-8"?>
<!-- Generator: Adobe Illustrator 18.0.0, SVG Export Plug-In . SVG Version: 6.00 Build 0)  -->
<!DOCTYPE svg PUBLIC "-//W3C//DTD SVG 1.1//EN" "http://www.w3.org/Graphics/SVG/1.1/DTD/svg11.dtd">
<svg version="1.1" xmlns="http://www.w3.org/2000/svg" xmlns:xlink="http://www.w3.org/1999/xlink" x="0px" y="0px" width="2800px"
	 height="2800px" viewBox="0 0 2800 2800" enable-background="new 0 0 2800 2800" xml:space="preserve">
<g id="BACKGROUND">
	<g>
		<rect fill="#287182" width="2800" height="2800"/>
	</g>
</g>
<g id="OBJECTS">
	<g>
		<ellipse fill="#236473" cx="1400" cy="2504" rx="1242" ry="94"/>
	</g>
	<g>
		<ellipse fill="#236473" cx="1400" cy="1229.1" rx="1242" ry="94"/>
	</g>
	<g>
		<g>
			<circle fill="#E6E6E6" cx="524.7" cy="1776.3" r="205.4"/>
			<path fill="#E6E6E6" d="M789.9,1648.3c-65.4-127.3-265.2-17.5-265.2-17.5s-199.8-109.8-265.2,17.5s1.2,328.3,78.3,438.1
				s186.9,102.8,186.9,102.8s109.8,7,186.9-102.8S855.3,1775.6,789.9,1648.3z"/>
			<g>
				<path fill="#CCCCCC" d="M789.9,1648.3c-26.3-51.2-74.3-64-122.3-61.1c33.6,2.6,64.9,18.7,83.6,61.1
					c55.9,127.3-1,328.3-66.8,438.1c-58.2,97.1-138.2,102.9-156,102.9c19.5,0.1,114.5-4.8,183.3-102.9
					C788.7,1976.5,855.3,1775.6,789.9,1648.3z"/>
			</g>
			<g>
				<path fill="#F2F2F2" d="M276,1880c-6,0-11.4-4.1-12.8-10.2c-13.5-59.6-22.3-145,12.7-213.1c17.8-34.7,48.4-51.5,93.4-51.5
					c7.3,0,13.1,5.9,13.1,13.1s-5.9,13.1-13.1,13.1c-35.2,0-56.8,11.5-70.1,37.3c-31.4,61.1-23,139.9-10.5,195.3
					c1.6,7.1-2.8,14.1-9.9,15.7C277.9,1879.9,276.9,1880,276,1880z"/>
			</g>
			<path fill="#F2F2F2" d="M524.7,1586.7c-27.7,0-54,5.9-77.7,16.6c31.4,14.1,58.2,36.5,77.7,64.4c19.5-27.9,46.3-50.3,77.7-64.4
				C578.7,1592.7,552.4,1586.7,524.7,1586.7z"/>
		</g>
		<g>
			<ellipse fill="#FA9696" cx="406.1" cy="1888" rx="48.3" ry="30"/>
			<ellipse fill="#FA9696" cx="650.5" cy="1888" rx="48.3" ry="30"/>
		</g>
		<g>
			<g>
				<path fill="#2A2A40" d="M473.1,1812.4c-3,0-5.9-1.2-8-3.7c-10.6-12.3-25.9-19.4-42.1-19.4c-16.2,0-31.5,7.1-42.1,19.4
					c-3.8,4.4-10.4,4.9-14.8,1.1c-4.4-3.8-4.9-10.4-1.1-14.8c14.6-17,35.7-26.7,58-26.7c22.3,0,43.5,9.7,58,26.7
					c3.8,4.4,3.3,11-1.1,14.8C478,1811.6,475.6,1812.4,473.1,1812.4z"/>
			</g>
			<g>
				<path fill="#2A2A40" d="M676.4,1812.4c-3,0-5.9-1.2-8-3.7c-10.6-12.3-25.9-19.4-42.1-19.4s-31.5,7.1-42.1,19.4
					c-3.8,4.4-10.4,4.9-14.8,1.1c-4.4-3.8-4.9-10.4-1.1-14.8c14.6-17,35.7-26.7,58-26.7s43.5,9.7,58,26.7c3.8,4.4,3.3,11-1.1,14.8
					C681.3,1811.6,678.8,1812.4,676.4,1812.4z"/>
			</g>
		</g>
		<path fill="#E63839" d="M528.3,1952.1c-33.2,0-63.7-7.3-88-19.6c-2.6,8.6-4.1,17.7-4.1,27.1c0,50.8,41.2,92,92,92s92-41.2,92-92
			c0-9.4-1.4-18.5-4.1-27.1C592,1944.8,561.5,1952.1,528.3,1952.1z"/>
		<path fill="#BF2C2D" d="M528.3,1984.4c-29.9,0-57.3,8.8-78.4,23.5c16.2,26.3,45.2,43.8,78.4,43.8s62.2-17.5,78.4-43.8
			C585.6,1993.2,558.2,1984.4,528.3,1984.4z"/>
	</g>
	<g>
		<g>
			<circle fill="#E6E6E6" cx="1108.2" cy="1776.3" r="205.4"/>
			<path fill="#E6E6E6" d="M1373.4,1648.3c-65.4-127.3-265.2-17.5-265.2-17.5s-199.8-109.8-265.2,17.5s1.2,328.3,78.3,438.1
				s186.9,102.8,186.9,102.8s109.8,7,186.9-102.8S1438.8,1775.6,1373.4,1648.3z"/>
			<g>
				<path fill="#CCCCCC" d="M1373.4,1648.3c-26.3-51.2-74.3-64-122.3-61.1c33.6,2.6,64.9,18.7,83.6,61.1
					c55.9,127.3-1,328.3-66.8,438.1c-58.2,97.1-138.2,102.9-156,102.9c19.5,0.1,114.5-4.8,183.3-102.9
					C1372.3,1976.5,1438.8,1775.6,1373.4,1648.3z"/>
			</g>
			<g>
				<path fill="#F2F2F2" d="M859.5,1880c-6,0-11.4-4.1-12.8-10.2c-13.5-59.6-22.3-145,12.7-213.1c17.8-34.7,48.4-51.5,93.4-51.5
					c7.3,0,13.1,5.9,13.1,13.1s-5.9,13.1-13.1,13.1c-35.2,0-56.8,11.5-70.1,37.3c-31.4,61.1-23,139.9-10.5,195.3
					c1.6,7.1-2.8,14.1-9.9,15.7C861.4,1879.9,860.4,1880,859.5,1880z"/>
			</g>
			<path fill="#F2F2F2" d="M1108.2,1586.7c-27.7,0-54,5.9-77.7,16.6c31.4,14.1,58.2,36.5,77.7,64.4c19.5-27.9,46.3-50.3,77.7-64.4
				C1162.2,1592.7,1135.9,1586.7,1108.2,1586.7z"/>
		</g>
		<g>
			<ellipse fill="#FA9696" cx="989.6" cy="1888" rx="48.3" ry="30"/>
			<ellipse fill="#FA9696" cx="1234.1" cy="1888" rx="48.3" ry="30"/>
		</g>
		<g>
			<g>
				<path fill="#2A2A40" d="M1056.7,1812.4c-3,0-5.9-1.2-8-3.7c-10.6-12.3-25.9-19.4-42.1-19.4c-16.2,0-31.5,7.1-42.1,19.4
					c-3.8,4.4-10.4,4.9-14.8,1.1c-4.4-3.8-4.9-10.4-1.1-14.8c14.6-17,35.7-26.7,58-26.7c22.3,0,43.5,9.7,58,26.7
					c3.8,4.4,3.3,11-1.1,14.8C1061.5,1811.6,1059.1,1812.4,1056.7,1812.4z"/>
			</g>
			<g>
				<path fill="#2A2A40" d="M1259.9,1812.4c-3,0-5.9-1.2-8-3.7c-10.6-12.3-25.9-19.4-42.1-19.4s-31.5,7.1-42.1,19.4
					c-3.8,4.4-10.4,4.9-14.8,1.1c-4.4-3.8-4.9-10.4-1.1-14.8c14.6-17,35.7-26.7,58-26.7s43.5,9.7,58,26.7c3.8,4.4,3.3,11-1.1,14.8
					C1264.8,1811.6,1262.3,1812.4,1259.9,1812.4z"/>
			</g>
		</g>
		<path fill="#E63839" d="M1111.8,1952.1c-33.2,0-63.7-7.3-88-19.6c-2.6,8.6-4.1,17.7-4.1,27.1c0,50.8,41.2,92,92,92
			c50.8,0,92-41.2,92-92c0-9.4-1.4-18.5-4.1-27.1C1175.6,1944.8,1145,1952.1,1111.8,1952.1z"/>
		<path fill="#BF2C2D" d="M1111.8,1984.4c-29.9,0-57.3,8.8-78.4,23.5c16.2,26.3,45.2,43.8,78.4,43.8c33.1,0,62.2-17.5,78.4-43.8
			C1169.1,1993.2,1141.7,1984.4,1111.8,1984.4z"/>
	</g>
	<g>
		<g>
			<circle fill="#E6E6E6" cx="1691.8" cy="1776.3" r="205.4"/>
			<path fill="#E6E6E6" d="M1957,1648.3c-65.4-127.3-265.2-17.5-265.2-17.5s-199.8-109.8-265.2,17.5
				c-65.4,127.3,1.2,328.3,78.3,438.1s186.9,102.8,186.9,102.8s109.8,7,186.9-102.8S2022.4,1775.6,1957,1648.3z"/>
			<g>
				<path fill="#CCCCCC" d="M1957,1648.3c-26.3-51.2-74.3-64-122.3-61.1c33.6,2.6,64.9,18.7,83.6,61.1
					c55.9,127.3-1,328.3-66.8,438.1c-58.2,97.1-138.2,102.9-156,102.9c19.5,0.1,114.5-4.8,183.3-102.9
					C1955.8,1976.5,2022.4,1775.6,1957,1648.3z"/>
			</g>
			<g>
				<path fill="#F2F2F2" d="M1443,1880c-6,0-11.4-4.1-12.8-10.2c-13.5-59.6-22.3-145,12.7-213.1c17.8-34.7,48.4-51.5,93.4-51.5
					c7.3,0,13.1,5.9,13.1,13.1s-5.9,13.1-13.1,13.1c-35.2,0-56.8,11.5-70.1,37.3c-31.4,61.1-23,139.9-10.5,195.3
					c1.6,7.1-2.8,14.1-9.9,15.7C1445,1879.9,1444,1880,1443,1880z"/>
			</g>
			<path fill="#F2F2F2" d="M1691.8,1586.7c-27.7,0-54,5.9-77.7,16.6c31.4,14.1,58.2,36.5,77.7,64.4c19.5-27.9,46.3-50.3,77.7-64.4
				C1745.7,1592.7,1719.5,1586.7,1691.8,1586.7z"/>
		</g>
		<g>
			<ellipse fill="#FA9696" cx="1573.1" cy="1888" rx="48.3" ry="30"/>
			<ellipse fill="#FA9696" cx="1817.6" cy="1888" rx="48.3" ry="30"/>
		</g>
		<g>
			<g>
				<path fill="#2A2A40" d="M1640.2,1812.4c-3,0-5.9-1.2-8-3.7c-10.6-12.3-25.9-19.4-42.1-19.4c-16.2,0-31.5,7.1-42.1,19.4
					c-3.8,4.4-10.4,4.9-14.8,1.1c-4.4-3.8-4.9-10.4-1.1-14.8c14.6-17,35.7-26.7,58-26.7c22.3,0,43.5,9.7,58,26.7
					c3.8,4.4,3.3,11-1.1,14.8C1645.1,1811.6,1642.6,1812.4,1640.2,1812.4z"/>
			</g>
			<g>
				<path fill="#2A2A40" d="M1843.5,1812.4c-3,0-5.9-1.2-8-3.7c-10.6-12.3-25.9-19.4-42.1-19.4s-31.5,7.1-42.1,19.4
					c-3.8,4.4-10.4,4.9-14.8,1.1c-4.4-3.8-4.9-10.4-1.1-14.8c14.6-17,35.7-26.7,58-26.7s43.5,9.7,58,26.7c3.8,4.4,3.3,11-1.1,14.8
					C1848.3,1811.6,1845.9,1812.4,1843.5,1812.4z"/>
			</g>
		</g>
		<path fill="#E63839" d="M1695.4,1952.1c-33.2,0-63.7-7.3-88-19.6c-2.6,8.6-4.1,17.7-4.1,27.1c0,50.8,41.2,92,92,92
			c50.8,0,92-41.2,92-92c0-9.4-1.4-18.5-4.1-27.1C1759.1,1944.8,1728.5,1952.1,1695.4,1952.1z"/>
		<path fill="#BF2C2D" d="M1695.4,1984.4c-29.9,0-57.3,8.8-78.4,23.5c16.2,26.3,45.2,43.8,78.4,43.8c33.1,0,62.2-17.5,78.4-43.8
			C1752.6,1993.2,1725.3,1984.4,1695.4,1984.4z"/>
	</g>
	<g>
		<g>
			<circle fill="#E6E6E6" cx="2275.3" cy="1776.3" r="205.4"/>
			<path fill="#E6E6E6" d="M2540.5,1648.3c-65.4-127.3-265.2-17.5-265.2-17.5s-199.8-109.8-265.2,17.5
				c-65.4,127.3,1.2,328.3,78.3,438.1c77.1,109.8,186.9,102.8,186.9,102.8s109.8,7,186.9-102.8
				C2539.3,1976.5,2605.9,1775.6,2540.5,1648.3z"/>
			<g>
				<path fill="#CCCCCC" d="M2540.5,1648.3c-26.3-51.2-74.3-64-122.3-61.1c33.6,2.6,64.9,18.7,83.6,61.1
					c55.9,127.3-1,328.3-66.8,438.1c-58.2,97.1-138.2,102.9-156,102.9c19.5,0.1,114.5-4.8,183.3-102.9
					C2539.3,1976.5,2605.9,1775.6,2540.5,1648.3z"/>
			</g>
			<g>
				<path fill="#F2F2F2" d="M2026.5,1880c-6,0-11.4-4.1-12.8-10.2c-13.5-59.6-22.3-145,12.7-213.1c17.8-34.7,48.4-51.5,93.4-51.5
					c7.3,0,13.1,5.9,13.1,13.1s-5.9,13.1-13.1,13.1c-35.2,0-56.8,11.5-70.1,37.3c-31.4,61.1-23,139.9-10.5,195.3
					c1.6,7.1-2.8,14.1-9.9,15.7C2028.5,1879.9,2027.5,1880,2026.5,1880z"/>
			</g>
			<path fill="#F2F2F2" d="M2275.3,1586.7c-27.7,0-54,5.9-77.7,16.6c31.4,14.1,58.2,36.5,77.7,64.4c19.5-27.9,46.3-50.3,77.7-64.4
				C2329.3,1592.7,2303,1586.7,2275.3,1586.7z"/>
		</g>
		<g>
			<ellipse fill="#FA9696" cx="2156.6" cy="1888" rx="48.3" ry="30"/>
			<ellipse fill="#FA9696" cx="2401.1" cy="1888" rx="48.3" ry="30"/>
		</g>
		<g>
			<g>
				<path fill="#2A2A40" d="M2223.7,1812.4c-3,0-5.9-1.2-8-3.7c-10.6-12.3-25.9-19.4-42.1-19.4c-16.2,0-31.5,7.1-42.1,19.4
					c-3.8,4.4-10.4,4.9-14.8,1.1c-4.4-3.8-4.9-10.4-1.1-14.8c14.6-17,35.7-26.7,58-26.7c22.3,0,43.5,9.7,58,26.7
					c3.8,4.4,3.3,11-1.1,14.8C2228.6,1811.6,2226.2,1812.4,2223.7,1812.4z"/>
			</g>
			<g>
				<path fill="#2A2A40" d="M2427,1812.4c-3,0-5.9-1.2-8-3.7c-10.6-12.3-25.9-19.4-42.1-19.4s-31.5,7.1-42.1,19.4
					c-3.8,4.4-10.4,4.9-14.8,1.1c-4.4-3.8-4.9-10.4-1.1-14.8c14.6-17,35.7-26.7,58-26.7s43.5,9.7,58,26.7c3.8,4.4,3.3,11-1.1,14.8
					C2431.8,1811.6,2429.4,1812.4,2427,1812.4z"/>
			</g>
		</g>
		<path fill="#E63839" d="M2278.9,1952.1c-33.2,0-63.7-7.3-88-19.6c-2.6,8.6-4.1,17.7-4.1,27.1c0,50.8,41.2,92,92,92s92-41.2,92-92
			c0-9.4-1.4-18.5-4.1-27.1C2342.6,1944.8,2312.1,1952.1,2278.9,1952.1z"/>
		<path fill="#BF2C2D" d="M2278.9,1984.4c-29.9,0-57.3,8.8-78.4,23.5c16.2,26.3,45.2,43.8,78.4,43.8s62.2-17.5,78.4-43.8
			C2336.2,1993.2,2308.8,1984.4,2278.9,1984.4z"/>
	</g>
	<g>
		<g>
			<circle fill="#E6E6E6" cx="1108.2" cy="501.5" r="205.4"/>
			<path fill="#E6E6E6" d="M1373.4,373.4c-65.4-127.3-265.2-17.5-265.2-17.5S908.5,246.1,843,373.4s1.2,328.3,78.3,438.1
				s186.9,102.8,186.9,102.8s109.8,7,186.9-102.8S1438.8,500.7,1373.4,373.4z"/>
			<g>
				<path fill="#CCCCCC" d="M1373.4,373.4c-26.3-51.2-74.3-64-122.3-61.1c33.6,2.6,64.9,18.7,83.6,61.1
					c55.9,127.3-1,328.3-66.8,438.1c-58.2,97.1-138.2,102.9-156,102.9c19.5,0.1,114.5-4.8,183.3-102.9
					C1372.3,701.7,1438.8,500.7,1373.4,373.4z"/>
			</g>
			<g>
				<path fill="#F2F2F2" d="M859.5,605.2c-6,0-11.4-4.1-12.8-10.2c-13.5-59.6-22.3-145,12.7-213.1c17.8-34.7,48.4-51.5,93.4-51.5
					c7.3,0,13.1,5.9,13.1,13.1c0,7.3-5.9,13.1-13.1,13.1c-35.2,0-56.8,11.5-70.1,37.3c-31.4,61.1-23,139.9-10.5,195.3
					c1.6,7.1-2.8,14.1-9.9,15.7C861.4,605.1,860.4,605.2,859.5,605.2z"/>
			</g>
			<path fill="#F2F2F2" d="M1108.2,311.9c-27.7,0-54,5.9-77.7,16.6c31.4,14.1,58.2,36.5,77.7,64.4c19.5-27.9,46.3-50.3,77.7-64.4
				C1162.2,317.8,1135.9,311.9,1108.2,311.9z"/>
		</g>
		<path fill="#E63839" d="M1194.5,706.9c-16.6-28.4-47.4-47.5-82.6-47.5c-35.3,0-66.1,19.1-82.6,47.5
			C1084.3,691.6,1139.4,691.6,1194.5,706.9z"/>
		<g>
			<circle fill="#2A2A40" cx="1006.6" cy="516.7" r="22.7"/>
			<circle fill="#2A2A40" cx="1209.9" cy="516.7" r="22.7"/>
		</g>
	</g>
	<g>
		<g>
			<circle fill="#E6E6E6" cx="1691.8" cy="501.5" r="205.4"/>
			<path fill="#E6E6E6" d="M1957,373.4c-65.4-127.3-265.2-17.5-265.2-17.5s-199.8-109.8-265.2,17.5
				c-65.4,127.3,1.2,328.3,78.3,438.1s186.9,102.8,186.9,102.8s109.8,7,186.9-102.8S2022.4,500.7,1957,373.4z"/>
			<g>
				<path fill="#CCCCCC" d="M1957,373.4c-26.3-51.2-74.3-64-122.3-61.1c33.6,2.6,64.9,18.7,83.6,61.1c55.9,127.3-1,328.3-66.8,438.1
					c-58.2,97.1-138.2,102.9-156,102.9c19.5,0.1,114.5-4.8,183.3-102.9C1955.8,701.7,2022.4,500.7,1957,373.4z"/>
			</g>
			<g>
				<path fill="#F2F2F2" d="M1443,605.2c-6,0-11.4-4.1-12.8-10.2c-13.5-59.6-22.3-145,12.7-213.1c17.8-34.7,48.4-51.5,93.4-51.5
					c7.3,0,13.1,5.9,13.1,13.1c0,7.3-5.9,13.1-13.1,13.1c-35.2,0-56.8,11.5-70.1,37.3c-31.4,61.1-23,139.9-10.5,195.3
					c1.6,7.1-2.8,14.1-9.9,15.7C1445,605.1,1444,605.2,1443,605.2z"/>
			</g>
			<path fill="#F2F2F2" d="M1691.8,311.9c-27.7,0-54,5.9-77.7,16.6c31.4,14.1,58.2,36.5,77.7,64.4c19.5-27.9,46.3-50.3,77.7-64.4
				C1745.7,317.8,1719.5,311.9,1691.8,311.9z"/>
		</g>
		<path fill="#E63839" d="M1778,706.9c-16.6-28.4-47.4-47.5-82.6-47.5c-35.3,0-66.1,19.1-82.6,47.5
			C1667.8,691.6,1722.9,691.6,1778,706.9z"/>
		<g>
			<circle fill="#2A2A40" cx="1590.1" cy="516.7" r="22.7"/>
			<circle fill="#2A2A40" cx="1793.4" cy="516.7" r="22.7"/>
		</g>
	</g>
	<g>
		<g>
			<circle fill="#E6E6E6" cx="2275.3" cy="501.5" r="205.4"/>
			<path fill="#E6E6E6" d="M2540.5,373.4c-65.4-127.3-265.2-17.5-265.2-17.5s-199.8-109.8-265.2,17.5
				c-65.4,127.3,1.2,328.3,78.3,438.1c77.1,109.8,186.9,102.8,186.9,102.8s109.8,7,186.9-102.8
				C2539.3,701.7,2605.9,500.7,2540.5,373.4z"/>
			<g>
				<path fill="#CCCCCC" d="M2540.5,373.4c-26.3-51.2-74.3-64-122.3-61.1c33.6,2.6,64.9,18.7,83.6,61.1
					c55.9,127.3-1,328.3-66.8,438.1c-58.2,97.1-138.2,102.9-156,102.9c19.5,0.1,114.5-4.8,183.3-102.9
					C2539.3,701.7,2605.9,500.7,2540.5,373.4z"/>
			</g>
			<g>
				<path fill="#F2F2F2" d="M2026.5,605.2c-6,0-11.4-4.1-12.8-10.2c-13.5-59.6-22.3-145,12.7-213.1c17.8-34.7,48.4-51.5,93.4-51.5
					c7.3,0,13.1,5.9,13.1,13.1c0,7.3-5.9,13.1-13.1,13.1c-35.2,0-56.8,11.5-70.1,37.3c-31.4,61.1-23,139.9-10.5,195.3
					c1.6,7.1-2.8,14.1-9.9,15.7C2028.5,605.1,2027.5,605.2,2026.5,605.2z"/>
			</g>
			<path fill="#F2F2F2" d="M2275.3,311.9c-27.7,0-54,5.9-77.7,16.6c31.4,14.1,58.2,36.5,77.7,64.4c19.5-27.9,46.3-50.3,77.7-64.4
				C2329.3,317.8,2303,311.9,2275.3,311.9z"/>
		</g>
		<path fill="#E63839" d="M2361.5,706.9c-16.6-28.4-47.4-47.5-82.6-47.5c-35.3,0-66.1,19.1-82.6,47.5
			C2251.3,691.6,2306.4,691.6,2361.5,706.9z"/>
		<g>
			<circle fill="#2A2A40" cx="2173.7" cy="516.7" r="22.7"/>
			<circle fill="#2A2A40" cx="2376.9" cy="516.7" r="22.7"/>
		</g>
	</g>
	<g>
		<g>
			<circle fill="#E6E6E6" cx="524.7" cy="501.5" r="205.4"/>
			<path fill="#E6E6E6" d="M789.9,373.4c-65.4-127.3-265.2-17.5-265.2-17.5s-199.8-109.8-265.2,17.5s1.2,328.3,78.3,438.1
				s186.9,102.8,186.9,102.8s109.8,7,186.9-102.8S855.3,500.7,789.9,373.4z"/>
			<g>
				<path fill="#CCCCCC" d="M789.9,373.4c-26.3-51.2-74.3-64-122.3-61.1c33.6,2.6,64.9,18.7,83.6,61.1
					c55.9,127.3-1,328.3-66.8,438.1c-58.2,97.1-138.2,102.9-156,102.9c19.5,0.1,114.5-4.8,183.3-102.9
					C788.7,701.7,855.3,500.7,789.9,373.4z"/>
			</g>
			<g>
				<path fill="#F2F2F2" d="M276,605.2c-6,0-11.4-4.1-12.8-10.2c-13.5-59.6-22.3-145,12.7-213.1c17.8-34.7,48.4-51.5,93.4-51.5
					c7.3,0,13.1,5.9,13.1,13.1c0,7.3-5.9,13.1-13.1,13.1c-35.2,0-56.8,11.5-70.1,37.3c-31.4,61.1-23,139.9-10.5,195.3
					c1.6,7.1-2.8,14.1-9.9,15.7C277.9,605.1,276.9,605.2,276,605.2z"/>
			</g>
			<path fill="#F2F2F2" d="M524.7,311.9c-27.7,0-54,5.9-77.7,16.6c31.4,14.1,58.2,36.5,77.7,64.4c19.5-27.9,46.3-50.3,77.7-64.4
				C578.7,317.8,552.4,311.9,524.7,311.9z"/>
		</g>
		<path fill="#E63839" d="M610.9,706.9c-16.6-28.4-47.4-47.5-82.6-47.5c-35.3,0-66.1,19.1-82.6,47.5
			C500.7,691.6,555.8,691.6,610.9,706.9z"/>
		<g>
			<circle fill="#2A2A40" cx="423.1" cy="516.7" r="22.7"/>
			<circle fill="#2A2A40" cx="626.3" cy="516.7" r="22.7"/>
		</g>
	</g>
	<path fill="#FA8C8D" d="M1936.6,703.4c-163.4,118.3-326.9,118.8-490.3-0.2c-27.8-20.2-65.4-19.9-93.2,0.2
		c-163.4,118.3-326.9,118.8-490.3-0.2c-27.8-20.2-65.4-19.9-93.2,0.2C629.3,804.9,489,819.6,348.8,746.6
		c-52.7-27.5-115.8,10.9-115.8,70.3v137.7c0,151.6,122.9,274.5,274.5,274.5h309.1H1400h583.5h309.1c151.6,0,274.5-122.9,274.5-274.5
		v-138c0-59.5-63.1-97.8-115.8-70.3c-140.5,73.2-280.9,59.1-421.4-43.1C2002.1,682.9,1964.5,683.2,1936.6,703.4z"/>
	<path fill="#FA9696" d="M2451.2,746.3c-140.5,73.2-280.9,59.1-421.4-43.1c-27.8-20.2-65.4-19.9-93.2,0.2
		c-163.4,118.3-326.9,118.8-490.3-0.2c-27.8-20.2-65.4-19.9-93.2,0.2c-163.4,118.3-326.9,118.8-490.3-0.2
		c-27.8-20.2-65.4-19.9-93.2,0.2C629.3,804.9,489,819.6,348.8,746.6c-52.7-27.5-115.8,10.9-115.8,70.3v109.3
		c0-36.3,63.1-59.7,115.8-42.9c140.3,44.6,280.5,35.6,420.8-26.3c27.8-12.3,65.4-12.5,93.2-0.1c163.4,72.6,326.9,72.3,490.3,0.1
		c27.8-12.3,65.4-12.5,93.2-0.1c163.4,72.6,326.9,72.3,490.3,0.1c27.8-12.3,65.4-12.5,93.2-0.1c140.5,62.4,280.9,70.9,421.4,26.3
		c52.7-16.8,115.8,6.6,115.8,42.9V816.6C2567.1,757.1,2504,718.8,2451.2,746.3z"/>
	<path fill="#EC6A6A" d="M2292.6,1133.1h-309.1H1400H816.5H507.4c-151.6,0-274.5-101.1-274.5-225.8v47.3
		c0,151.6,122.9,274.5,274.5,274.5h309.1H1400h583.5h309.1c151.6,0,274.5-122.9,274.5-274.5v-47.3
		C2567.1,1032,2444.2,1133.1,2292.6,1133.1z"/>
	<path fill="#FA8C8D" d="M1936.6,1978.2c-163.4,118.3-326.9,118.8-490.3-0.2c-27.8-20.2-65.4-19.9-93.2,0.2
		c-163.4,118.3-326.9,118.8-490.3-0.2c-27.8-20.2-65.4-19.9-93.2,0.2c-140.3,101.5-280.5,116.3-420.8,43.2
		c-52.7-27.5-115.8,10.9-115.8,70.3v137.7c0,151.6,122.9,274.5,274.5,274.5h309.1H1400h583.5h309.1c151.6,0,274.5-122.9,274.5-274.5
		v-138c0-59.5-63.1-97.8-115.8-70.3c-140.5,73.2-280.9,59.1-421.4-43.1C2002.1,1957.8,1964.5,1958.1,1936.6,1978.2z"/>
	<path fill="#FA9696" d="M2451.2,2021.1c-140.5,73.2-280.9,59.1-421.4-43.1c-27.8-20.2-65.4-19.9-93.2,0.2
		c-163.4,118.3-326.9,118.8-490.3-0.2c-27.8-20.2-65.4-19.9-93.2,0.2c-163.4,118.3-326.9,118.8-490.3-0.2
		c-27.8-20.2-65.4-19.9-93.2,0.2c-140.3,101.5-280.5,116.3-420.8,43.2c-52.7-27.5-115.8,10.9-115.8,70.3V2201
		c0-36.3,63.1-59.7,115.8-42.9c140.3,44.6,280.5,35.6,420.8-26.3c27.8-12.3,65.4-12.5,93.2-0.1c163.4,72.6,326.9,72.3,490.3,0.1
		c27.8-12.3,65.4-12.5,93.2-0.1c163.4,72.6,326.9,72.3,490.3,0.1c27.8-12.3,65.4-12.5,93.2-0.1c140.5,62.4,280.9,70.9,421.4,26.3
		c52.7-16.8,115.8,6.6,115.8,42.9v-109.4C2567.1,2032,2504,1993.7,2451.2,2021.1z"/>
	<path fill="#EC6A6A" d="M2292.6,2407.9h-309.1H1400H816.5H507.4c-151.6,0-274.5-101.1-274.5-225.8v47.3
		c0,151.6,122.9,274.5,274.5,274.5h309.1H1400h583.5h309.1c151.6,0,274.5-122.9,274.5-274.5v-47.3
		C2567.1,2306.9,2444.2,2407.9,2292.6,2407.9z"/>
	<g>
		<path fill="#FFFFFF" d="M227,1493.1c0,38.1-30.9,69-69,69c38.1,0,69,30.9,69,69c0-38.1,30.9-69,69-69
			C257.9,1562.1,227,1531.2,227,1493.1z"/>
		<path fill="#FFFFFF" d="M2573,1493.1c0,38.1-30.9,69-69,69c38.1,0,69,30.9,69,69c0-38.1,30.9-69,69-69
			C2603.8,1562.1,2573,1531.2,2573,1493.1z"/>
		<path fill="#FFFFFF" d="M1185.8,1392.2c0,38.1-30.9,69-69,69c38.1,0,69,30.9,69,69c0-38.1,30.9-69,69-69
			C1216.7,1461.2,1185.8,1430.3,1185.8,1392.2z"/>
		<path fill="#FFFFFF" d="M1691.8,1323.2c0,38.1-30.9,69-69,69c38.1,0,69,30.9,69,69c0-38.1,30.9-69,69-69
			C1722.7,1392.2,1691.8,1361.3,1691.8,1323.2z"/>
		<path fill="#FFFFFF" d="M816.5,1335.5c0,69.4-56.2,125.6-125.6,125.6c69.4,0,125.6,56.2,125.6,125.6
			c0-69.4,56.2-125.6,125.6-125.6C872.7,1461.2,816.5,1404.9,816.5,1335.5z"/>
		<path fill="#FFFFFF" d="M1983.5,1335.5c0,69.4-56.2,125.6-125.6,125.6c69.4,0,125.6,56.2,125.6,125.6
			c0-69.4,56.2-125.6,125.6-125.6C2039.8,1461.2,1983.5,1404.9,1983.5,1335.5z"/>
	</g>
</g>
</svg>
