<?xml version="1.0" encoding="UTF-8" standalone="no"?>
<!-- Created with Inkscape (http://www.inkscape.org/) -->

<svg
   version="1.1"
   id="svg48"
   width="5333.3335"
   height="2666.6667"
   viewBox="0 0 5333.3335 2666.6667"
   sodipodi:docname="cleaning and scaling.svg"
   inkscape:version="1.2.2 (b0a84865, 2022-12-01)"
   inkscape:export-filename="teeth and whitening.png"
   inkscape:export-xdpi="96"
   inkscape:export-ydpi="96"
   xmlns:inkscape="http://www.inkscape.org/namespaces/inkscape"
   xmlns:sodipodi="http://sodipodi.sourceforge.net/DTD/sodipodi-0.dtd"
   xmlns="http://www.w3.org/2000/svg"
   xmlns:svg="http://www.w3.org/2000/svg">
  <defs
     id="defs52" />
  <sodipodi:namedview
     id="namedview50"
     pagecolor="#ffffff"
     bordercolor="#000000"
     borderopacity="0.25"
     inkscape:showpageshadow="2"
     inkscape:pageopacity="0.0"
     inkscape:pagecheckerboard="0"
     inkscape:deskcolor="#d1d1d1"
     showgrid="false"
     inkscape:zoom="0.33756196"
     inkscape:cx="2575.8234"
     inkscape:cy="1398.2618"
     inkscape:window-width="1512"
     inkscape:window-height="844"
     inkscape:window-x="0"
     inkscape:window-y="38"
     inkscape:window-maximized="1"
     inkscape:current-layer="g56">
    <inkscape:page
       x="0"
       y="0"
       id="page54"
       width="5333.3335"
       height="2666.6667" />
  </sodipodi:namedview>
  <g
     id="g56"
     inkscape:groupmode="layer"
     inkscape:label="Page 1"
     transform="matrix(1.3333333,0,0,-1.3333333,0,2666.6667)">
    <g
       id="g58"
       transform="matrix(0.0585605,0,0,0.0557745,430.06421,0)"
       inkscape:label="g58"
       style="display:inline">
      <path
         style="display:inline;fill:#f4f1de;fill-opacity:1;stroke-width:56.1969"
         d="m 16820.157,16375.813 v 9990.705 h 9213.759 9213.759 V 16375.813 6385.1079 h -9213.759 -9213.759 z"
         id="path1748" />
      <path
         d="m 26938.456,14366.033 v -1256.017 c 163.913,4.587 305.971,71.278 431.229,202.102 578.417,603.485 593.062,2334.456 592.839,2529.942 -0.08,57.781 1.189,105.682 3.865,150.673 38.358,632.595 275.196,1286.539 467.135,1723.737 193.573,440.902 248.657,943.027 155.141,1413.835 v 0 c -117.453,591.663 -401.792,952.995 -869.298,1104.815 -414.801,134.617 -884.983,68.72 -1206.342,-10.322 -329.611,-81.07 -663.831,-81.07 -993.441,0 -321.359,79.042 -791.542,144.939 -1206.387,10.322 -467.469,-151.82 -751.816,-513.152 -869.298,-1104.815 -93.494,-470.808 -38.388,-972.933 155.179,-1413.835 191.916,-437.198 428.746,-1091.142 467.089,-1723.737 2.743,-45.079 3.977,-92.98 3.903,-150.761 -0.231,-195.398 14.429,-1926.369 592.853,-2529.854 125.258,-130.824 267.242,-197.515 431.23,-202.102 v 1255.929 c -3.717,96.508 -38.656,1257.516 387.816,1789.899 144.883,180.842 324.63,272.587 534.335,272.587 209.631,0 389.452,-91.745 534.335,-272.587 186.958,-233.419 308.722,-609.395 362.022,-1117.695 36.053,-344.483 27.356,-630.302 25.795,-672.116 z m -17.692,-1612.321 c -49.435,0 -100.058,4.058 -151.722,11.998 -74.709,11.556 -130.611,87.157 -130.611,176.52 v 1427.949 c 0,2.999 0.08,5.999 0.223,8.998 12.638,304.168 -17.543,1172.388 -305.674,1531.691 -87.197,108.77 -190.749,161.612 -316.676,161.612 -125.927,0 -229.553,-52.842 -316.75,-161.612 -288.131,-359.303 -318.312,-1227.523 -305.6,-1531.779 0.149,-2.911 0.149,-5.911 0.149,-8.91 V 12942.23 c 0,-89.363 -55.827,-164.964 -130.536,-176.52 -306.938,-47.549 -575.741,46.401 -798.752,279.026 -286.674,299.14 -489.175,822.701 -601.871,1556.216 -86.848,565.11 -93.018,1093.17 -92.839,1241.549 0.06,48.872 -0.929,88.48 -3.13,124.649 -34.671,571.903 -255.102,1177.505 -433.928,1584.885 -226.787,516.504 -291.104,1106.05 -181.114,1659.957 75.697,381.181 216.863,693.906 419.595,929.442 175.926,204.308 398.834,351.364 662.507,437.022 472.301,153.319 992.884,81.864 1346.431,-5.117 289.171,-71.102 582.431,-71.102 871.677,0 353.547,86.981 874.13,158.436 1346.393,5.117 263.674,-85.658 486.611,-232.714 662.492,-437.022 202.792,-235.536 343.958,-548.261 419.633,-929.442 v 0 c 110.019,-553.907 45.643,-1143.453 -181.159,-1659.957 -178.781,-407.38 -399.191,-1012.982 -433.906,-1584.885 -2.156,-36.08 -3.196,-75.689 -3.122,-124.649 0.149,-148.379 -6.021,-676.439 -92.847,-1241.549 -112.695,-733.515 -315.189,-1257.076 -601.833,-1556.216 -185.471,-193.457 -402.61,-291.024 -647.03,-291.024"
         style="display:none;fill:#555558;fill-opacity:1;fill-rule:nonzero;stroke:none;stroke-width:0.809797"
         id="path62" />
    </g>
    <path
       style="display:none;fill:#000000;fill-opacity:0;stroke-width:2.84607"
       d="m 2512.1709,1684.3581 c -10.7923,-5.3182 -19.5349,-16.0357 -29.7592,-36.4817 -15.7257,-31.4472 -23.6476,-73.1426 -27.5776,-145.1497 -3.1494,-57.7043 -9.3152,-84.7709 -32.629,-143.2333 -18.1223,-45.4442 -22.8503,-70.8742 -18.6439,-100.2781 8.8477,-61.8487 36.3589,-92.1597 90.8564,-100.1028 18.9575,-2.7631 26.6702,-2.474 51.7772,1.9405 43.4721,7.6435 69.7058,8.5655 95.497,3.3563 53.8003,-10.8663 91.0071,-7.8655 118.477,9.5554 26.1459,16.5812 43.3229,50.8528 46.6623,93.1007 2.1917,27.7266 -2.4361,49.0643 -20.5562,94.7807 -22.879,57.723 -26.7707,75.4525 -31.3154,142.6645 -6.9544,102.8492 -23.7565,157.1082 -55.1683,178.1545 -19.6748,13.1822 -19.1644,14.7608 -21.1404,-65.384 -1.9501,-79.0941 -5.3837,-103.485 -18.4943,-131.373 -14.6151,-31.0886 -33.0673,-43.3064 -61.8052,-40.9232 -25.3136,2.0992 -43.2088,20.1033 -55.0483,55.3832 -8.8857,26.4783 -11.7208,56.701 -11.7208,124.9457 0,71.1299 0.713,68.9611 -19.4113,59.0443 z"
       id="path3559"
       transform="matrix(0.75000002,0,0,-0.75000002,0,2000.0001)" />
    <path
       style="display:none;fill:#000000;fill-opacity:0;stroke-width:2.84607"
       d="m 2512.1709,1684.3581 c -10.7923,-5.3182 -19.5349,-16.0357 -29.7592,-36.4817 -15.7257,-31.4472 -23.6476,-73.1426 -27.5776,-145.1497 -3.1494,-57.7043 -9.3152,-84.7709 -32.629,-143.2333 -18.1223,-45.4442 -22.8503,-70.8742 -18.6439,-100.2781 8.8477,-61.8487 36.3589,-92.1597 90.8564,-100.1028 18.9575,-2.7631 26.6702,-2.474 51.7772,1.9405 43.4721,7.6435 69.7058,8.5655 95.497,3.3563 53.8003,-10.8663 91.0071,-7.8655 118.477,9.5554 26.1459,16.5812 43.3229,50.8528 46.6623,93.1007 2.1917,27.7266 -2.4361,49.0643 -20.5562,94.7807 -22.879,57.723 -26.7707,75.4525 -31.3154,142.6645 -6.9544,102.8492 -23.7565,157.1082 -55.1683,178.1545 -19.6748,13.1822 -19.1644,14.7608 -21.1404,-65.384 -1.9501,-79.0941 -5.3837,-103.485 -18.4943,-131.373 -14.6151,-31.0886 -33.0673,-43.3064 -61.8052,-40.9232 -25.3136,2.0992 -43.2088,20.1033 -55.0483,55.3832 -8.8857,26.4783 -11.7208,56.701 -11.7208,124.9457 0,71.1299 0.713,68.9611 -19.4113,59.0443 z"
       id="path3561"
       transform="matrix(0.75000002,0,0,-0.75000002,0,2000.0001)" />
    <path
       style="display:none;fill:#ffffff;fill-opacity:1;stroke-width:2.84607"
       d="m 2512.1709,1684.3581 c -10.7923,-5.3182 -19.5349,-16.0357 -29.7592,-36.4817 -15.7257,-31.4472 -23.6476,-73.1426 -27.5776,-145.1497 -3.1494,-57.7043 -9.3152,-84.7709 -32.629,-143.2333 -18.1223,-45.4442 -22.8503,-70.8742 -18.6439,-100.2781 8.8477,-61.8487 36.3589,-92.1597 90.8564,-100.1028 18.9575,-2.7631 26.6702,-2.474 51.7772,1.9405 43.4721,7.6435 69.7058,8.5655 95.497,3.3563 53.8003,-10.8663 91.0071,-7.8655 118.477,9.5554 26.1459,16.5812 43.3229,50.8528 46.6623,93.1007 2.1917,27.7266 -2.4361,49.0643 -20.5562,94.7807 -22.879,57.723 -26.7707,75.4525 -31.3154,142.6645 -6.9544,102.8492 -23.7565,157.1082 -55.1683,178.1545 -19.6748,13.1822 -19.1644,14.7608 -21.1404,-65.384 -1.9501,-79.0941 -5.3837,-103.485 -18.4943,-131.373 -14.6151,-31.0886 -33.0673,-43.3064 -61.8052,-40.9232 -25.3136,2.0992 -43.2088,20.1033 -55.0483,55.3832 -8.8857,26.4783 -11.7208,56.701 -11.7208,124.9457 0,71.1299 0.713,68.9611 -19.4113,59.0443 z"
       id="path3563"
       transform="matrix(0.75000002,0,0,-0.75000002,0,2000.0001)" />
    <g
       id="g13721"
       transform="matrix(0.02699462,0,0,0.02748391,1570.7206,331.8398)">
      <path
         d="m 14365.355,24110.92 c -654.2,1273.4 -2651.9,175.3 -2651.9,175.3 0,0 -1997.6098,1098.1 -2651.8098,-175.3 -654.2,-1273.3 11.69,-3282.6 782.71,-4380.8 771.0198,-1098.1 1869.0998,-1028 1869.0998,-1028 0,0 1098.2,-70.1 1869.2,1028 771,1098.2 1436.9,3107.5 782.7,4380.8"
         style="fill:#fffdca;fill-opacity:1;fill-rule:nonzero;stroke:none"
         id="path11356" />
      <path
         d="m 8530.0552,24110.92 c -654.2,1273.4 -2651.86,175.3 -2651.86,175.3 0,0 -1997.65,1098.1 -2651.85,-175.3 -654.2,-1273.3 11.68,-3282.6 782.71,-4380.8 771.02,-1098.1 1869.14,-1028 1869.14,-1028 0,0 1098.13,-70.1 1869.15,1028 771.03,1098.2 1436.91,3107.5 782.71,4380.8"
         style="fill:#fffdca;fill-opacity:1;fill-rule:nonzero;stroke:none"
         id="path11404"
         inkscape:label="path11404"
         transform="translate(5.2855033e-4,0.00121147)" />
      <path
         d="m 20200.655,24110.92 c -654.2,1273.4 -2651.9,175.3 -2651.9,175.3 0,0 -1997.6,1098.1 -2651.8,-175.3 -654.2,-1273.3 11.7,-3282.6 782.7,-4380.8 771,-1098.1 1869.1,-1028 1869.1,-1028 0,0 1098.2,-70.1 1869.2,1028 771,1098.2 1436.9,3107.5 782.7,4380.8"
         style="fill:#fffee3;fill-opacity:1;fill-rule:nonzero;stroke:none"
         id="path11372"
         inkscape:label="path11372"
         transform="translate(5.2855033e-4,0.00121147)" />
      <path
         d="m 26035.955,24110.92 c -654.2,1273.4 -2651.9,175.3 -2651.9,175.3 0,0 -1997.6,1098.1 -2651.8,-175.3 -654.2,-1273.3 11.7,-3282.6 782.7,-4380.8 771,-1098.1 1869.1,-1028 1869.1,-1028 0,0 1098.2,-70.1 1869.2,1028 771,1098.2 1436.9,3107.5 782.7,4380.8"
         style="fill:#fffee3;fill-opacity:1;fill-rule:nonzero;stroke:none"
         id="path11388" />
      <path
         d="m 19997.555,20811.32 c -1634.4,-1182.7 -3268.8,-1187.8 -4903.2,2.3 -277.7,202.2 -653.8,199.1 -932.1,-2.3 -1634.4,-1182.7 -3268.8,-1187.8 -4903.2098,2.3 -277.73,202.2 -653.76,199.1 -932.09,-2.3 -1402.64,-1015 -2805.31,-1162.7 -4208,-431.9 -527.49,274.8 -1158.41,-108.6 -1158.41,-703.4 v -1377.2 c 0,-1515.9 1228.85,-2744.7 2744.71,-2744.7 h 3090.6 5835.2998 5835.3 3090.6 c 1515.9,0 2744.7,1228.8 2744.7,2744.7 v 1380.1 c 0,594.7 -630.8,978.1 -1158.3,703.4 -1404.6,-731.5 -2809.2,-591.5 -4213.8,431.3 -277.7,202.2 -653.8,199.1 -932.1,-2.3"
         style="fill:#f47387;fill-opacity:1;fill-rule:nonzero;stroke:none"
         id="path11418" />
      <path
         d="m 25143.455,20382.32 c -1404.6,-731.5 -2809.2,-591.5 -4213.8,431.3 -277.7,202.2 -653.8,199.1 -932.1,-2.3 -1634.4,-1182.7 -3268.8,-1187.8 -4903.2,2.3 -277.7,202.2 -653.8,199.1 -932.1,-2.3 -1634.4,-1182.7 -3268.8,-1187.8 -4903.2098,2.3 -277.73,202.2 -653.76,199.1 -932.09,-2.3 -1402.64,-1015 -2805.31,-1162.7 -4208,-431.9 -527.49,274.8 -1158.41,-108.6 -1158.41,-703.4 v -1092.6 c 0,362.9 630.92,596.8 1158.41,429.1 1402.69,-445.8 2805.36,-355.7 4208,263.5 278.33,122.9 654.36,124.8 932.09,1.4 1634.4098,-726 3268.8098,-723 4903.2098,-1.4 278.3,122.9 654.4,124.8 932.1,1.4 1634.4,-726 3268.8,-723 4903.2,-1.4 278.3,122.9 654.4,124.8 932.1,1.4 1404.6,-624 2809.2,-709.4 4213.8,-263.1 527.5,167.6 1158.3,-66.3 1158.3,-429.2 v 1093.8 c 0,594.7 -630.8,978.1 -1158.3,703.4"
         style="fill:#f57f91;fill-opacity:1;fill-rule:nonzero;stroke:none"
         id="path11420" />
      <path
         d="M 23557.055,16514.12 H 5705.2552 c -1515.86,0 -2744.71,1010.8 -2744.71,2257.6 v -472.9 c 0,-1515.9 1228.85,-2744.7 2744.71,-2744.7 h 3090.6 5835.2998 5835.3 3090.6 c 1515.9,0 2744.7,1228.8 2744.7,2744.7 v 472.9 c 0,-1246.8 -1228.8,-2257.6 -2744.7,-2257.6"
         style="fill:#ed4d62;fill-opacity:1;fill-rule:nonzero;stroke:none"
         id="path11422" />
      <path
         style="font-variation-settings:'wght' 600;fill:#eedc82;fill-opacity:1;stroke-width:27.5349"
         d="m 3513.3019,20422.792 c 0,0 376.0453,112.572 865.1335,-166.401 267.7866,-152.744 1527.1981,-668.224 2779.905,-115.873 1014.133,447.157 745.6156,405.498 1208.4776,640.275 698.8019,354.453 966.4716,-60.912 966.4716,-60.912 0,0 825.8094,-888.356 2280.8074,-811.107 1454.995,77.249 1872.208,489.454 2398.778,772.483 544.481,292.656 310.078,530.353 310.078,530.353 0,0 -821.294,-646.226 -1332.507,-684.848 -511.216,-38.624 -910.078,-289.432 -2162.834,77.246 -969.56,283.787 -1245.213,484.781 -1725.7521,699.671 -197.5231,88.33 -585.3473,-5.951 -585.3473,-5.951 0,0 -1289.8372,-605.386 -1660.6501,-616.471 0,0 -1415.671,-308.993 -2320.1291,115.873 -904.458,424.866 -1079.9304,-103.97 -1158.5794,127.774 -78.649,231.746 136.1479,-502.112 136.1479,-502.112 z"
         id="path14975"
         sodipodi:nodetypes="cssscsscssscsssc" />
    </g>
    <path
       d="m 2301.9655,1091.2616 c 0,-19.073 -16.2153,-34.5333 -36.2197,-34.5333 20.0044,0 36.2197,-15.4629 36.2197,-34.5332 0,19.0703 16.2152,34.5332 36.2196,34.5332 -20.0044,0 -36.2196,15.4603 -36.2196,34.5333"
       style="fill:#ffffff;fill-opacity:1;fill-rule:nonzero;stroke:none;stroke-width:0.028158"
       id="path11440" />
    <path
       d="m 2340.1911,1010.3133 c 0,-13.4844 -11.937,-24.41473 -26.6633,-24.41473 14.7263,0 26.6633,-10.93214 26.6633,-24.41472 0,13.48258 11.9369,24.41472 26.6632,24.41472 -14.7263,0 -26.6632,10.93033 -26.6632,24.41473"
       style="fill:#ffffff;fill-opacity:1;fill-rule:nonzero;stroke:none;stroke-width:0.0203139"
       id="path11440-8" />
    <path
       d="m 2215.958,1093.5101 c 0,-13.4844 -11.937,-24.4147 -26.6633,-24.4147 14.7263,0 26.6633,-10.9322 26.6633,-24.4147 0,13.4825 11.9369,24.4147 26.6632,24.4147 -14.7263,0 -26.6632,10.9303 -26.6632,24.4147"
       style="fill:#ffffff;fill-opacity:1;fill-rule:nonzero;stroke:none;stroke-width:0.0203139"
       id="path11440-8-9" />
    <path
       style="font-variation-settings:'wght' 600;fill:#fdfdfd;fill-opacity:1;stroke-width:0.75"
       d="M 1668.4578,892.35545 Z"
       id="path23788" />
    <path
       style="font-variation-settings:'wght' 600;fill:#fdfdfd;fill-opacity:1;stroke-width:0.75"
       d="m 1651.3692,850.41094 -0.7767,27.18623"
       id="path23853" />
    <ellipse
       style="font-variation-settings:'wght' 600;fill:#fdfdfd;fill-opacity:1;stroke-width:0.75"
       id="path23859"
       cx="1684.2743"
       cy="-907.86505"
       transform="scale(1,-1)"
       rx="0.98813397"
       ry="0.74110049" />
    <path
       style="font-variation-settings:'wght' 600;fill:#fff79a;fill-opacity:1;stroke-width:0.75"
       d="m 1662.2543,903.58304 c 0,0 -11.8759,35.45233 -11.5297,46.58593 0.262,8.42496 11.8953,-4.06193 38.6077,-9.40447 12.3742,-2.47487 51.0472,-0.98994 60.3862,-0.98994 4.9498,0 36.1329,3.95979 42.0725,6.43464 11.8793,4.94968 15.8391,4.4547 15.8391,4.4547 0,0 -2.4749,-30.68813 -6.9296,-33.6579 -4.4547,-2.96985 -31.2383,-16.97339 -45.0423,-19.30383 -8.34,-1.408 -10.7945,-4.01332 -44.0523,-0.98997 -10.8893,0.98991 -19.8507,9.74009 -34.6479,10.88932 -4.4688,0.34707 -14.7037,-4.01848 -14.7037,-4.01848 z"
       id="path29093"
       sodipodi:nodetypes="csssscssssc" />
    <path
       style="font-variation-settings:'wght' 600;fill:#fff79a;fill-opacity:1;stroke-width:0.75"
       d="m 1808.499,949.30655 c 0,0 3.4113,-30.70208 6.3354,-31.67678 2.924,-0.9747 35.1793,-16.65739 42.3981,-18.5187 6.4775,-1.67018 25.3414,-8.77207 39.4741,-7.31002 14.1327,1.46197 33.7322,1.32702 60.4295,22.41735 1.7521,1.38414 9.643,34.13109 8.2847,38.9868 -1.42,5.07644 -71.6382,-34.60073 -156.9218,-3.89865 z"
       id="path29149"
       sodipodi:nodetypes="csssssc" />
    <path
       d="m 1744.8847,886.60663 31.9058,7.5187 -34.4223,-0.831 -1.3287,-0.033 -1.0256,-1.3007 -9.3765,-11.8842 c -1.8761,-0.1171 -3.6868,-1.0374 -4.8754,-2.6743 l -26.9247,-37.02628 -27.6516,-38.03524 v 0 l -136.915,-188.30679 c -2.1124,-2.90282 -1.4607,-6.9636 1.4571,-9.06704 1.1552,-0.83431 2.4926,-1.23726 3.819,-1.23726 2.0199,0 4.0132,0.93586 5.2874,2.68703 l 191.4944,263.36828 c 1.4682,2.0209 1.5982,4.5939 0.5629,6.6845 l 7.9965,10.1361"
       style="fill:#555550;fill-opacity:1;fill-rule:nonzero;stroke:none;stroke-width:0.0317911"
       id="path34498" />
  </g>
</svg>
